<?xml version="1.0" encoding="UTF-8"?>
<svg id="Layer_1" data-name="Layer 1" xmlns="http://www.w3.org/2000/svg" xmlns:xlink="http://www.w3.org/1999/xlink" viewBox="0 0 1109.01 234">
  <defs>
    <style>
      .cls-1 {
        fill: url(#linear-gradient-15);
      }

      .cls-2 {
        fill: url(#linear-gradient-13);
      }

      .cls-3 {
        fill: url(#linear-gradient-2);
      }

      .cls-4 {
        fill: url(#linear-gradient-10);
      }

      .cls-5 {
        fill: url(#linear-gradient-12);
      }

      .cls-6 {
        fill: url(#linear-gradient-4);
      }

      .cls-7 {
        fill: url(#linear-gradient-3);
      }

      .cls-8 {
        fill: url(#linear-gradient-5);
      }

      .cls-9 {
        fill: url(#linear-gradient-8);
      }

      .cls-10 {
        fill: url(#linear-gradient-14);
      }

      .cls-11 {
        fill: url(#linear-gradient-7);
      }

      .cls-12 {
        fill: url(#linear-gradient-9);
      }

      .cls-13 {
        fill: url(#linear-gradient-11);
      }

      .cls-14 {
        fill: url(#linear-gradient-6);
      }

      .cls-15 {
        fill: url(#linear-gradient-16);
      }

      .cls-16 {
        fill: url(#linear-gradient);
      }
    </style>
    <linearGradient id="linear-gradient" x1="328.02" y1="95.74" x2="463.01" y2="95.74" gradientUnits="userSpaceOnUse">
      <stop offset="0" stop-color="#f3b000"/>
      <stop offset="1" stop-color="#f18700"/>
    </linearGradient>
    <linearGradient id="linear-gradient-2" x1="478.26" y1="120.36" x2="603.01" y2="120.36" xlink:href="#linear-gradient"/>
    <linearGradient id="linear-gradient-3" x1="832.57" y1="120.44" x2="956.01" y2="120.44" xlink:href="#linear-gradient"/>
    <linearGradient id="linear-gradient-4" x1="605.01" y1="144" x2="749.01" y2="144" xlink:href="#linear-gradient"/>
    <linearGradient id="linear-gradient-5" x1="754" y1="94.5" x2="842.01" y2="94.5" xlink:href="#linear-gradient"/>
    <linearGradient id="linear-gradient-6" x1="1026.01" y1="118.89" x2="1109.01" y2="118.89" xlink:href="#linear-gradient"/>
    <linearGradient id="linear-gradient-7" x1="970.01" y1="120.5" x2="1006.01" y2="120.5" xlink:href="#linear-gradient"/>
    <linearGradient id="linear-gradient-8" x1="970.01" y1="18.5" x2="1006.01" y2="18.5" xlink:href="#linear-gradient"/>
    <linearGradient id="linear-gradient-9" x1="150.01" y1="39" x2="164.01" y2="39" xlink:href="#linear-gradient"/>
    <linearGradient id="linear-gradient-10" x1="63.12" y1="58.49" x2="112.91" y2="58.49" xlink:href="#linear-gradient"/>
    <linearGradient id="linear-gradient-11" x1="202.01" y1="56.99" x2="252" y2="56.99" xlink:href="#linear-gradient"/>
    <linearGradient id="linear-gradient-12" x1="10.06" y1="101.72" x2="77.93" y2="101.72" xlink:href="#linear-gradient"/>
    <linearGradient id="linear-gradient-13" x1="237.62" y1="100.81" x2="305.52" y2="100.81" xlink:href="#linear-gradient"/>
    <linearGradient id="linear-gradient-14" x1="256.52" y1="171" x2="317.38" y2="171" xlink:href="#linear-gradient"/>
    <linearGradient id="linear-gradient-15" x1="0" y1="171.53" x2="61.01" y2="171.53" xlink:href="#linear-gradient"/>
    <linearGradient id="linear-gradient-16" x1="66.89" y1="133" x2="247.12" y2="133" xlink:href="#linear-gradient"/>
  </defs>
  <path class="cls-16" d="M463.01,1v186h-34l-1.01-15c-22.41,27.46-70.64,23.48-89.18-6.31-15.89-25.52-14.44-73.77,5.68-96.71,19.07-21.75,55.92-23.73,77.52-4.5,2.04,1.82,3.1,3.96,4.99,5.51V1c11.63,1.3,24.5,1.91,36,0ZM387.75,81.24c-23.5,3.68-25.58,32.36-23.62,51.14,4.06,38.89,56.22,39.26,63.6,1.85,5.66-28.64-6.19-58.27-39.99-52.99Z"/>
  <path class="cls-3" d="M603.01,187h-32v-16c-15.58,18.87-42.01,22.94-64.8,16.3-39.57-11.53-37.46-67.52,8.59-76.01,17.3-3.19,36.68-3.64,54.21-5.29.18-6.68.03-15.82-4.16-21.35-9.23-12.21-49.37-9.87-49.85,10.35h-32c1.42-44.72,57.3-50.4,90.76-40.26,18.97,5.75,29.24,22.01,29.24,41.76v90.5ZM570,126.01c-15.35,3.48-59.34-2.04-58.04,22.45,1.22,23.07,42.95,18.33,52.48,4.47,5.87-8.53,3.53-17.67,5.57-26.92Z"/>
  <path class="cls-7" d="M956.01,187h-31c1.07-5.54-2.39-10.99,0-15.99l-7.53,6.96c-22.28,20.22-80.2,16.16-84.36-19.58-4.58-39.33,20.37-45.49,52.4-49.38,12.06-1.47,24.39-2.09,36.5-3,.23-8.51.7-18.88-7.07-24.44-11.84-8.47-45.93-5.56-46.93,13.43h-32c2-41.38,47.03-47.84,80.23-42.73,23.05,3.55,39.77,17.38,39.77,42.23v92.5ZM923,126c-14.6,3.15-59.87-1.82-57.8,22.21,1.83,21.22,33.27,18.27,46.49,9.98,10.9-6.83,10.94-20.67,11.31-32.2Z"/>
  <polygon class="cls-6" points="642.51 54 677.51 148.01 712.01 54 749.01 54 678.01 234 641.01 234 659.77 190.67 605.01 54 642.51 54"/>
  <path class="cls-8" d="M842.01,2v25c-19.8-2.88-29.89,7.39-28,27h21l-7.96,23.54-14.05.46,1,109h-35v-108h-25v-23.99s25.01-1.01,25.01-1.01c-.08-17.39,2.93-36.86,19.33-46.17,3.08-1.75,13.09-5.83,16.17-5.83h27.5Z"/>
  <path class="cls-14" d="M1109.01,51v35c-19.51-2.86-38.92,2.69-45.28,23.22-.78,2.53-2.72,10.12-2.72,12.28v65.5h-35V54h35v24l5.98-8.52c10.94-12.89,24.63-20.1,42.02-18.48Z"/>
  <rect class="cls-11" x="970.01" y="54" width="36" height="133"/>
  <path class="cls-9" d="M1006.01,1v34l-36,1V1c11.53,1.63,24.49,1.63,36,0Z"/>
  <path class="cls-12" d="M164.01,0v76c-4.4-.25-8.86.49-12.99,2l-1.01-78h14Z"/>
  <polygon class="cls-4" points="73.99 22.01 112.91 86.51 102.51 94.98 63.19 30.26 63.12 28.11 73.99 22.01"/>
  <polygon class="cls-13" points="252 27.01 213.02 92.54 202.01 86.99 240.99 21.44 252 27.01"/>
  <polygon class="cls-5" points="71.99 127 10.06 87.92 15.98 76.44 77.06 115.46 77.93 117.36 71.99 127"/>
  <path class="cls-2" d="M298.92,76.05l6.6,10.95-61.53,38.56c-.73-2.66-7.9-8.74-6.07-11.08l61-38.43Z"/>
  <path class="cls-10" d="M257.51,178c-2.43-.67.53-11.22-.51-14.01l60.01,1c-.93,4.06,1.62,9.92-.51,13.01h-59Z"/>
  <polygon class="cls-1" points="61.01 165 59.86 176.36 57.48 178.06 0 178.01 0 165 61.01 165"/>
  <path class="cls-15" d="M66.89,178.06c0-49.77,40.35-90.11,90.11-90.11s90.11,40.35,90.11,90.11"/>
</svg>